<svg width="264" height="87" viewBox="0 0 264 87" fill="none" xmlns="http://www.w3.org/2000/svg">
<g clip-path="url(#clip0_21_875)">
<path d="M43.0358 53.3762C48.6342 53.3762 53.1708 48.8266 53.1708 43.2152C53.1708 37.6038 48.6299 33.0586 43.0315 33.0586H32.8965V43.2195C32.9008 48.8309 37.4374 53.3805 43.0358 53.3762Z" fill="url(#paint0_linear_21_875)"/>
<path d="M19.076 7.50977C14.4272 10.6435 10.4259 14.6578 7.30078 19.3195L19.076 19.3152V7.50977Z" fill="url(#paint1_linear_21_875)"/>
<path d="M0.00619525 43.375C-0.0153869 44.7261 0.0191445 46.0598 0.114106 47.372V40.7031C0.0579924 41.588 0.0191446 42.4772 0.00619525 43.375Z" fill="url(#paint2_linear_21_875)"/>
<path d="M43.0454 0.503907C38.2152 0.503907 36.9549 0.503907 33.3852 0.823322L33.5449 19.0861C33.5449 19.0861 41.9447 19.0818 43.0713 19.0818C56.4522 19.0775 67.3036 29.9506 67.3036 43.3661C67.308 56.7816 56.4608 67.659 43.0799 67.659C29.6989 67.6633 18.8474 56.7902 18.8474 43.3747C18.8474 42.2438 19.0762 33.6627 19.0762 33.6627L0.524162 33.667C0.459416 35.972 0.239279 38.3115 0.105469 40.7028V47.3717C1.72845 70.2876 20.669 86.6168 43.0842 86.5476C66.8721 86.47 86.1536 67.2057 86.1492 43.3575C86.1492 19.5092 66.8332 0.49959 43.0454 0.503907Z" fill="url(#paint3_linear_21_875)"/>
</g>
<path d="M111.12 30.6H116.32C119.067 30.6 121.293 31.4133 123 33.04C124.733 34.64 125.6 36.72 125.6 39.28C125.6 41.84 124.733 43.9467 123 45.6C121.293 47.2 119.067 48 116.32 48H105.6V20H123.2V25.28H111.12V30.6ZM111.12 42.84H116.32C117.44 42.84 118.347 42.52 119.04 41.88C119.76 41.24 120.12 40.3733 120.12 39.28C120.12 38.1867 119.76 37.3333 119.04 36.72C118.347 36.08 117.44 35.76 116.32 35.76H111.12V42.84ZM133.798 39.36L143.198 28H147.038V48H141.998V36.64L132.598 48H128.758V28H133.798V39.36ZM149.806 28H167.526V32.96H161.286V48H156.126V32.96H149.806V28ZM181.922 27.44C184.615 27.44 186.909 28.4667 188.802 30.52C190.722 32.5733 191.682 35.0667 191.682 38C191.682 40.9867 190.722 43.4933 188.802 45.52C186.935 47.5467 184.642 48.56 181.922 48.56C179.122 48.56 176.962 47.5867 175.442 45.64V56H170.282V28H175.442V30.36C176.962 28.4133 179.122 27.44 181.922 27.44ZM177.002 42.08C178.042 43.12 179.362 43.64 180.962 43.64C182.562 43.64 183.882 43.12 184.922 42.08C185.989 41.0133 186.522 39.6533 186.522 38C186.522 36.3467 185.989 35 184.922 33.96C183.882 32.8933 182.562 32.36 180.962 32.36C179.362 32.36 178.042 32.8933 177.002 33.96C175.962 35 175.442 36.3467 175.442 38C175.442 39.6533 175.962 41.0133 177.002 42.08ZM212.361 45.52C210.334 47.5467 207.828 48.56 204.841 48.56C201.854 48.56 199.348 47.5467 197.321 45.52C195.294 43.4933 194.281 40.9867 194.281 38C194.281 35.04 195.294 32.5467 197.321 30.52C199.374 28.4667 201.881 27.44 204.841 27.44C207.801 27.44 210.308 28.4667 212.361 30.52C214.414 32.5733 215.441 35.0667 215.441 38C215.441 40.96 214.414 43.4667 212.361 45.52ZM200.961 41.96C202.001 43 203.294 43.52 204.841 43.52C206.388 43.52 207.681 43 208.721 41.96C209.761 40.92 210.281 39.6 210.281 38C210.281 36.4 209.761 35.08 208.721 34.04C207.681 33 206.388 32.48 204.841 32.48C203.294 32.48 202.001 33 200.961 34.04C199.948 35.1067 199.441 36.4267 199.441 38C199.441 39.5733 199.948 40.8933 200.961 41.96ZM224.111 39.36L233.511 28H237.351V48H232.311V36.64L222.911 48H219.071V28H224.111V39.36ZM260.079 28V43.16H262.719V53.36H257.679V48H245.279V53.36H240.239V43.16H242.679C243.825 41.4533 244.399 39.0933 244.399 36.08V28H260.079ZM248.199 43.16H255.039V32.64H249.439V36.08C249.439 38.96 249.025 41.32 248.199 43.16Z" fill="white"/>
<path d="M104.44 79V66.4H105.7V79H104.44ZM107.508 66.4H116.508V67.588H112.638V79H111.378V67.588H107.508V66.4ZM126.823 79.216C125.467 79.216 124.339 78.766 123.439 77.866C122.539 76.942 122.089 75.82 122.089 74.5C122.089 73.168 122.539 72.052 123.439 71.152C124.339 70.24 125.467 69.784 126.823 69.784C127.711 69.784 128.509 70 129.217 70.432C129.925 70.852 130.441 71.422 130.765 72.142L129.793 72.7C129.553 72.16 129.163 71.734 128.623 71.422C128.095 71.098 127.495 70.936 126.823 70.936C125.827 70.936 124.987 71.284 124.303 71.98C123.619 72.664 123.277 73.504 123.277 74.5C123.277 75.484 123.619 76.33 124.303 77.038C124.987 77.722 125.827 78.064 126.823 78.064C127.483 78.064 128.077 77.908 128.605 77.596C129.145 77.284 129.565 76.852 129.865 76.3L130.855 76.876C130.483 77.596 129.937 78.166 129.217 78.586C128.497 79.006 127.699 79.216 126.823 79.216ZM140.015 77.866C139.091 78.766 137.975 79.216 136.667 79.216C135.335 79.216 134.213 78.766 133.301 77.866C132.389 76.954 131.933 75.832 131.933 74.5C131.933 73.168 132.389 72.052 133.301 71.152C134.213 70.24 135.335 69.784 136.667 69.784C137.987 69.784 139.103 70.24 140.015 71.152C140.939 72.052 141.401 73.168 141.401 74.5C141.401 75.82 140.939 76.942 140.015 77.866ZM134.147 77.038C134.831 77.722 135.671 78.064 136.667 78.064C137.663 78.064 138.503 77.722 139.187 77.038C139.871 76.33 140.213 75.484 140.213 74.5C140.213 73.504 139.871 72.664 139.187 71.98C138.503 71.284 137.663 70.936 136.667 70.936C135.671 70.936 134.831 71.284 134.147 71.98C133.463 72.664 133.121 73.504 133.121 74.5C133.121 75.484 133.463 76.33 134.147 77.038ZM152.983 69.784C154.003 69.784 154.819 70.108 155.431 70.756C156.043 71.404 156.349 72.28 156.349 73.384V79H155.161V73.384C155.161 72.616 154.963 72.016 154.567 71.584C154.171 71.152 153.637 70.936 152.965 70.936C152.185 70.936 151.573 71.194 151.129 71.71C150.685 72.226 150.463 72.994 150.463 74.014V79H149.275V73.384C149.275 72.604 149.089 72.004 148.717 71.584C148.345 71.152 147.829 70.936 147.169 70.936C146.413 70.936 145.789 71.2 145.297 71.728C144.817 72.256 144.577 73.018 144.577 74.014V79H143.389V70H144.577V71.314C145.225 70.294 146.143 69.784 147.331 69.784C148.639 69.784 149.551 70.33 150.067 71.422C150.715 70.33 151.687 69.784 152.983 69.784ZM163.471 69.784C164.755 69.784 165.847 70.24 166.747 71.152C167.659 72.064 168.115 73.18 168.115 74.5C168.115 75.82 167.659 76.936 166.747 77.848C165.847 78.76 164.755 79.216 163.471 79.216C161.875 79.216 160.663 78.556 159.835 77.236V82.6H158.647V70H159.835V71.764C160.663 70.444 161.875 69.784 163.471 69.784ZM160.861 77.038C161.545 77.722 162.385 78.064 163.381 78.064C164.377 78.064 165.217 77.722 165.901 77.038C166.585 76.33 166.927 75.484 166.927 74.5C166.927 73.504 166.585 72.664 165.901 71.98C165.217 71.284 164.377 70.936 163.381 70.936C162.385 70.936 161.545 71.284 160.861 71.98C160.177 72.664 159.835 73.504 159.835 74.5C159.835 75.484 160.177 76.33 160.861 77.038ZM177.83 71.764V70H179.018V79H177.83V77.236C177.002 78.556 175.79 79.216 174.194 79.216C172.91 79.216 171.812 78.76 170.9 77.848C170 76.936 169.55 75.82 169.55 74.5C169.55 73.18 170 72.064 170.9 71.152C171.812 70.24 172.91 69.784 174.194 69.784C175.79 69.784 177.002 70.444 177.83 71.764ZM171.764 77.038C172.448 77.722 173.288 78.064 174.284 78.064C175.28 78.064 176.12 77.722 176.804 77.038C177.488 76.33 177.83 75.484 177.83 74.5C177.83 73.504 177.488 72.664 176.804 71.98C176.12 71.284 175.28 70.936 174.284 70.936C173.288 70.936 172.448 71.284 171.764 71.98C171.08 72.664 170.738 73.504 170.738 74.5C170.738 75.484 171.08 76.33 171.764 77.038ZM185.745 69.784C186.825 69.784 187.683 70.12 188.319 70.792C188.955 71.452 189.273 72.346 189.273 73.474V79H188.085V73.474C188.085 72.67 187.869 72.046 187.437 71.602C187.017 71.158 186.417 70.936 185.637 70.936C184.737 70.936 184.023 71.218 183.495 71.782C182.979 72.346 182.721 73.18 182.721 74.284V79H181.533V70H182.721V71.404C183.393 70.324 184.401 69.784 185.745 69.784ZM194.959 77.542L197.875 70H199.135L195.283 79.828C194.923 80.74 194.419 81.442 193.771 81.934C193.135 82.438 192.427 82.66 191.647 82.6V81.484C192.727 81.616 193.549 80.992 194.113 79.612L194.347 79.054L190.315 70H191.575L194.959 77.542Z" fill="white"/>
<defs>
<linearGradient id="paint0_linear_21_875" x1="20.9351" y1="12.8148" x2="49.0044" y2="51.4318" gradientUnits="userSpaceOnUse">
<stop stop-color="#39DC72"/>
<stop offset="1" stop-color="#00733E"/>
</linearGradient>
<linearGradient id="paint1_linear_21_875" x1="12.4004" y1="12.3312" x2="18.0309" y2="20.0775" gradientUnits="userSpaceOnUse">
<stop stop-color="#39B576"/>
<stop offset="1" stop-color="#00913F"/>
</linearGradient>
<linearGradient id="paint2_linear_21_875" x1="-8.90909" y1="31.6243" x2="40.0606" y2="98.9958" gradientUnits="userSpaceOnUse">
<stop stop-color="#39B576"/>
<stop offset="0.4949" stop-color="#209140"/>
<stop offset="1"/>
</linearGradient>
<linearGradient id="paint3_linear_21_875" x1="19.2897" y1="11.0715" x2="68.2261" y2="78.3969" gradientUnits="userSpaceOnUse">
<stop stop-color="#39B576"/>
<stop offset="0.4949" stop-color="#209140"/>
<stop offset="1"/>
</linearGradient>
<clipPath id="clip0_21_875">
<rect width="87" height="87" fill="white"/>
</clipPath>
</defs>
</svg>
