<svg width="31" height="31" viewBox="0 0 31 31" fill="none" xmlns="http://www.w3.org/2000/svg">
<path d="M25.833 5.16699H5.16634C3.74551 5.16699 2.58301 6.32949 2.58301 7.75033V23.2503C2.58301 24.6712 3.74551 25.8337 5.16634 25.8337H25.833C27.2538 25.8337 28.4163 24.6712 28.4163 23.2503V7.75033C28.4163 6.32949 27.2538 5.16699 25.833 5.16699ZM25.3163 10.6566L16.8688 15.9395C16.0293 16.4691 14.9701 16.4691 14.1305 15.9395L5.68301 10.6566C5.55349 10.5839 5.44007 10.4856 5.34961 10.3678C5.25916 10.25 5.19355 10.1151 5.15675 9.97118C5.11996 9.82728 5.11274 9.67741 5.13554 9.53064C5.15835 9.38387 5.21069 9.24325 5.28941 9.1173C5.36813 8.99134 5.47159 8.88267 5.59353 8.79786C5.71547 8.71305 5.85334 8.65386 5.99881 8.62388C6.14429 8.59389 6.29433 8.59374 6.43987 8.62343C6.5854 8.65311 6.7234 8.71201 6.84551 8.79658L15.4997 14.2087L24.1538 8.79658C24.276 8.71201 24.4139 8.65311 24.5595 8.62343C24.705 8.59374 24.8551 8.59389 25.0005 8.62388C25.146 8.65386 25.2839 8.71305 25.4058 8.79786C25.5278 8.88267 25.6312 8.99134 25.7099 9.1173C25.7887 9.24325 25.841 9.38387 25.8638 9.53064C25.8866 9.67741 25.8794 9.82728 25.8426 9.97118C25.8058 10.1151 25.7402 10.25 25.6497 10.3678C25.5593 10.4856 25.4459 10.5839 25.3163 10.6566Z" fill="#2F9E5F"/>
</svg>
