<svg width="33" height="28" viewBox="0 0 33 28" fill="none" xmlns="http://www.w3.org/2000/svg">
<path d="M26.4412 17.8034L22.9487 17.4651C22.538 17.4241 22.1218 17.4627 21.7312 17.5779C21.3406 17.6931 20.9859 17.8818 20.6937 18.1301L18.1637 20.2767C14.2603 18.5923 11.0876 15.9003 9.10243 12.5884L11.6462 10.4301C12.2374 9.92839 12.5262 9.22839 12.4299 8.51672L12.0312 5.57672C11.9532 5.00759 11.6313 4.48266 11.1268 4.10188C10.6222 3.72109 9.97021 3.51104 9.29493 3.51172H6.91618C5.36243 3.51172 4.06993 4.60839 4.16618 5.92672C4.89493 15.8901 14.2862 23.8467 26.0149 24.4651C27.5687 24.5467 28.8612 23.4501 28.8612 22.1317V20.1134C28.8749 18.9351 27.8299 17.9434 26.4412 17.8034Z" fill="#2F9E5F"/>
</svg>
