<svg width="35" height="35" viewBox="0 0 35 35" fill="none" xmlns="http://www.w3.org/2000/svg">
<path d="M17.5003 2.91699C9.45033 2.91699 2.91699 9.45033 2.91699 17.5003C2.91699 25.5503 9.45033 32.0837 17.5003 32.0837C25.5503 32.0837 32.0837 25.5503 32.0837 17.5003C32.0837 9.45033 25.5503 2.91699 17.5003 2.91699ZM24.267 12.8337C24.0482 15.1378 23.1003 20.7378 22.6191 23.3191C22.4149 24.4128 22.0066 24.7774 21.6274 24.8212C20.7816 24.8941 20.1399 24.267 19.3232 23.7274C18.0399 22.8816 17.3107 22.3566 16.0712 21.5399C14.6274 20.592 15.5607 20.067 16.392 19.2212C16.6107 19.0024 20.3441 15.6045 20.417 15.2982C20.4271 15.2519 20.4258 15.2037 20.4131 15.158C20.4004 15.1122 20.3767 15.0703 20.3441 15.0357C20.2566 14.9628 20.1399 14.992 20.0378 15.0066C19.9066 15.0357 17.8649 16.392 13.8837 19.0753C13.3003 19.4691 12.7753 19.6732 12.3087 19.6587C11.7837 19.6441 10.792 19.367 10.0482 19.1191C9.12949 18.8274 8.41491 18.667 8.47324 18.1566C8.50241 17.8941 8.86699 17.6316 9.55241 17.3545C13.8107 15.5024 16.6399 14.2774 18.0545 13.6941C22.1087 12.0024 22.9399 11.7107 23.4941 11.7107C23.6107 11.7107 23.8878 11.7399 24.0628 11.8857C24.2087 12.0024 24.2524 12.1628 24.267 12.2795C24.2524 12.367 24.2816 12.6295 24.267 12.8337Z" fill="#2F9E5F"/>
</svg>
