<svg width="34" height="34" viewBox="0 0 34 34" fill="none" xmlns="http://www.w3.org/2000/svg">
<g clip-path="url(#clip0_21_865)">
<path fill-rule="evenodd" clip-rule="evenodd" d="M16.9997 2.83301C9.17542 2.83301 2.83301 9.17543 2.83301 16.9997C2.83301 19.6772 3.57676 22.1847 4.87017 24.321L3.60651 28.6163C3.53395 28.863 3.52918 29.1246 3.59269 29.3737C3.6562 29.6228 3.78564 29.8502 3.96742 30.0319C4.14919 30.2137 4.37658 30.3432 4.62568 30.4067C4.87478 30.4702 5.13639 30.4654 5.38301 30.3928L9.67834 29.1292C11.8865 30.4652 14.4188 31.1698 16.9997 31.1663C24.8239 31.1663 31.1663 24.8239 31.1663 16.9997C31.1663 9.17543 24.8239 2.83301 16.9997 2.83301ZM13.7952 20.2056C16.6611 23.0701 19.3967 23.4483 20.3628 23.4838C21.8319 23.5376 23.2628 22.4156 23.8195 21.1137C23.8898 20.9517 23.9153 20.7739 23.8934 20.5987C23.8714 20.4235 23.8029 20.2574 23.6948 20.1178C22.9185 19.1261 21.8688 18.4135 20.8431 17.7052C20.6289 17.5571 20.3658 17.4977 20.1088 17.5394C19.8518 17.5812 19.621 17.7208 19.4647 17.929L18.6147 19.2253C18.57 19.2949 18.5003 19.3449 18.42 19.3649C18.3397 19.3849 18.2548 19.3735 18.1826 19.3329C17.606 19.0028 16.7659 18.4418 16.1624 17.8383C15.5589 17.2348 15.0319 16.433 14.7358 15.8933C14.6991 15.8247 14.6885 15.7451 14.706 15.6693C14.7234 15.5935 14.7678 15.5266 14.8308 15.481L16.1398 14.5092C16.3266 14.3467 16.4471 14.1213 16.4785 13.8757C16.5098 13.6302 16.4498 13.3817 16.3098 13.1775C15.6751 12.2482 14.9356 11.0667 13.8632 10.2833C13.7248 10.183 13.5626 10.1204 13.3927 10.1018C13.2228 10.0832 13.051 10.1091 12.8942 10.177C11.5908 10.7352 10.4632 12.166 10.517 13.6379C10.5524 14.6041 10.9307 17.3397 13.7952 20.2056Z" fill="#2F9E5F"/>
</g>
<defs>
<clipPath id="clip0_21_865">
<rect width="34" height="34" fill="white"/>
</clipPath>
</defs>
</svg>
