<svg width="33" height="33" viewBox="0 0 33 33" fill="none" xmlns="http://www.w3.org/2000/svg">
<path d="M16.5 3.09375C13.8485 3.09375 11.2565 3.88001 9.05189 5.35311C6.84725 6.82621 5.12893 8.91998 4.11425 11.3696C3.09956 13.8193 2.83407 16.5149 3.35135 19.1154C3.86864 21.716 5.14546 24.1048 7.02036 25.9797C8.89525 27.8545 11.284 29.1314 13.8846 29.6487C16.4851 30.1659 19.1807 29.9004 21.6304 28.8858C24.08 27.8711 26.1738 26.1528 27.6469 23.9481C29.12 21.7435 29.9063 19.1515 29.9063 16.5C29.9025 12.9456 28.4889 9.53784 25.9755 7.0245C23.4622 4.51115 20.0544 3.0975 16.5 3.09375ZM23.7188 17.5312H16.5C16.2265 17.5312 15.9642 17.4226 15.7708 17.2292C15.5774 17.0358 15.4688 16.7735 15.4688 16.5V9.28125C15.4688 9.00775 15.5774 8.74544 15.7708 8.55205C15.9642 8.35865 16.2265 8.25 16.5 8.25C16.7735 8.25 17.0358 8.35865 17.2292 8.55205C17.4226 8.74544 17.5313 9.00775 17.5313 9.28125V15.4688H23.7188C23.9923 15.4688 24.2546 15.5774 24.448 15.7708C24.6414 15.9642 24.75 16.2265 24.75 16.5C24.75 16.7735 24.6414 17.0358 24.448 17.2292C24.2546 17.4226 23.9923 17.5312 23.7188 17.5312Z" fill="#2F9E5F"/>
</svg>
