<svg width="549" height="575" viewBox="0 0 549 575" fill="none" xmlns="http://www.w3.org/2000/svg">
<g opacity="0.5">
<path d="M398.781 56.4994L366.907 50.9844L365.541 58.8821L397.415 64.3971L398.781 56.4994Z" fill="#B7DFEA"/>
<path d="M542.457 119.58L360.488 88.0942L359.122 95.9919L541.09 127.477L542.457 119.58Z" fill="#B7DFEA"/>
<path d="M548.999 82.4885L402.68 57.1714L401.313 65.0691L547.633 90.3862L548.999 82.4885Z" fill="#B7DFEA"/>
<path d="M373.615 71.2575L363.694 69.541L362.328 77.4387L372.248 79.1552L373.615 71.2575Z" fill="#B7DFEA"/>
<path d="M545.615 101.016L484.25 90.3984L482.883 98.2961L544.248 108.914L545.615 101.016Z" fill="#B7DFEA"/>
<path d="M480.562 89.7551L381.409 72.5991L380.043 80.4968L479.195 97.6528L480.562 89.7551Z" fill="#B7DFEA"/>
<path d="M260.023 25.2898L119.694 1.00928L109.485 60.0164L249.813 84.297L260.023 25.2898Z" fill="#B7DFEA" stroke="white" stroke-miterlimit="10"/>
<path d="M119.69 1L249.808 84.2718" stroke="white" stroke-miterlimit="10"/>
<path d="M109.48 59.9921L260.021 25.2661" stroke="white" stroke-miterlimit="10"/>
<path d="M322.74 95.4875C339.505 91.0961 349.536 73.9453 345.145 57.1802C340.753 40.415 323.603 30.3842 306.837 34.7756C290.072 39.1671 280.041 56.3179 284.433 73.083C288.824 89.8481 305.975 99.879 322.74 95.4875Z" fill="#B7DFEA" stroke="white" stroke-miterlimit="10"/>
<path d="M290.132 45.2578L335.958 87.6585" stroke="white" stroke-miterlimit="10"/>
<path d="M343.894 54.5669L286.483 79.1078" stroke="white" stroke-miterlimit="10"/>
<path d="M186.645 195.155L368.613 226.641L369.98 218.743L188.011 187.258L186.645 195.155Z" fill="#B7DFEA"/>
<path d="M182.951 216.565L364.92 248.051L366.286 240.153L184.318 208.668L182.951 216.565Z" fill="#B7DFEA"/>
<path d="M179.247 237.972L361.216 269.457L362.582 261.559L180.614 230.074L179.247 237.972Z" fill="#B7DFEA"/>
<path d="M175.542 259.38L357.511 290.865L358.877 282.968L176.908 251.482L175.542 259.38Z" fill="#B7DFEA"/>
<path d="M380.491 228.686L467.186 243.687L468.552 235.789L381.858 220.788L380.491 228.686Z" fill="#B7DFEA" stroke="white" stroke-miterlimit="10"/>
<path d="M376.798 250.096L463.492 265.096L464.859 257.199L378.165 242.198L376.798 250.096Z" fill="#B7DFEA" stroke="white" stroke-miterlimit="10"/>
<path d="M373.071 271.538L459.765 286.529L461.13 278.632L374.436 263.64L373.071 271.538Z" fill="#B7DFEA" stroke="white" stroke-miterlimit="10"/>
<path d="M369.393 292.899L456.087 307.899L457.453 300.001L370.759 285.001L369.393 292.899Z" fill="#B7DFEA" stroke="white" stroke-miterlimit="10"/>
<path d="M342.057 188.219L482.386 212.5L492.596 153.493L352.267 129.212L342.057 188.219Z" fill="#B7DFEA" stroke="white" stroke-miterlimit="10"/>
<path d="M482.393 212.518L352.262 129.247" stroke="white" stroke-miterlimit="10"/>
<path d="M492.59 153.513L342.062 188.239" stroke="white" stroke-miterlimit="10"/>
<path d="M352.721 322.856L320.847 317.344L319.481 325.241L351.355 330.753L352.721 322.856Z" fill="#B7DFEA"/>
<path d="M496.366 385.971L314.397 354.486L313.031 362.384L495 393.869L496.366 385.971Z" fill="#B7DFEA"/>
<path d="M502.909 348.879L356.589 323.562L355.222 331.46L501.542 356.777L502.909 348.879Z" fill="#B7DFEA"/>
<path d="M327.524 337.649L317.604 335.932L316.237 343.83L326.157 345.546L327.524 337.649Z" fill="#B7DFEA"/>
<path d="M499.523 367.407L438.158 356.789L436.792 364.687L498.156 375.304L499.523 367.407Z" fill="#B7DFEA"/>
<path d="M434.455 356.157L335.303 339.001L333.936 346.899L433.089 364.055L434.455 356.157Z" fill="#B7DFEA"/>
<path d="M213.933 291.68L73.6045 267.4L63.3947 326.407L203.723 350.688L213.933 291.68Z" fill="#B7DFEA" stroke="white" stroke-miterlimit="10"/>
<path d="M73.6172 267.382L203.735 350.654" stroke="white" stroke-miterlimit="10"/>
<path d="M63.4062 326.387L213.933 291.661" stroke="white" stroke-miterlimit="10"/>
<path d="M287.252 356.803C301.225 346.552 304.243 326.915 293.992 312.942C283.742 298.969 264.104 295.951 250.131 306.202C236.158 316.452 233.14 336.09 243.391 350.063C253.641 364.036 273.279 367.054 287.252 356.803Z" fill="#B7DFEA" stroke="white" stroke-miterlimit="10"/>
<path d="M244.045 311.653L289.884 354.054" stroke="white" stroke-miterlimit="10"/>
<path d="M297.82 320.948L240.41 345.489" stroke="white" stroke-miterlimit="10"/>
<path d="M140.586 461.541L322.555 493.026L323.921 485.128L141.952 453.643L140.586 461.541Z" fill="#B7DFEA"/>
<path d="M136.881 482.948L318.85 514.433L320.216 506.535L138.247 475.05L136.881 482.948Z" fill="#B7DFEA"/>
<path d="M133.18 504.344L315.148 535.83L316.515 527.932L134.546 496.447L133.18 504.344Z" fill="#B7DFEA"/>
<path d="M129.474 525.751L311.442 557.236L312.809 549.339L130.84 517.853L129.474 525.751Z" fill="#B7DFEA"/>
<path d="M334.437 495.059L421.131 510.059L422.497 502.161L335.803 487.161L334.437 495.059Z" fill="#B7DFEA" stroke="white" stroke-miterlimit="10"/>
<path d="M330.73 516.467L417.424 531.468L418.79 523.57L332.096 508.57L330.73 516.467Z" fill="#B7DFEA" stroke="white" stroke-miterlimit="10"/>
<path d="M327.027 537.875L413.721 552.875L415.087 544.978L328.393 529.977L327.027 537.875Z" fill="#B7DFEA" stroke="white" stroke-miterlimit="10"/>
<path d="M323.32 559.282L410.014 574.283L411.38 566.385L324.686 551.385L323.32 559.282Z" fill="#B7DFEA" stroke="white" stroke-miterlimit="10"/>
<path d="M295.989 454.592L436.317 478.873L446.527 419.866L306.198 395.585L295.989 454.592Z" fill="#B7DFEA" stroke="white" stroke-miterlimit="10"/>
<path d="M436.303 478.903L306.186 395.631" stroke="white" stroke-miterlimit="10"/>
<path d="M446.517 419.911L295.977 454.637" stroke="white" stroke-miterlimit="10"/>
</g>
<g clip-path="url(#clip0_21_561)">
<path d="M243.424 436.916L85.7784 409.697C75.0845 407.855 67.9116 397.707 69.7572 387.023L124.365 72.0732C126.211 61.4025 136.381 54.2451 147.088 56.0867L304.734 83.2925C315.428 85.1341 322.601 95.2954 320.755 105.966L266.16 420.916C264.302 431.6 254.131 438.757 243.424 436.916Z" fill="white"/>
<path d="M238.319 425.801L94.3381 400.946C84.5736 399.261 78.0159 389.988 79.7044 380.245L131.446 81.8035C133.134 72.0601 142.428 65.5166 152.192 67.2014L296.173 92.0563C305.938 93.7411 312.495 103.014 310.807 112.758L259.065 411.199C257.377 420.955 248.084 427.486 238.319 425.801Z" fill="url(#paint0_linear_21_561)" stroke="url(#paint1_linear_21_561)" stroke-width="0.4841" stroke-miterlimit="10"/>
<path d="M161.578 83.2793C161.382 84.3895 160.322 85.134 159.209 84.9511C158.096 84.7552 157.35 83.6973 157.534 82.5871C157.73 81.4769 158.79 80.7324 159.903 80.9153C161.015 81.0982 161.774 82.1561 161.578 83.2793Z" fill="white"/>
<path d="M171.329 84.9512C171.133 86.0614 170.072 86.8058 168.96 86.623C167.847 86.4271 167.101 85.3691 167.285 84.259C167.481 83.1488 168.541 82.4043 169.654 82.5872C170.779 82.7831 171.525 83.841 171.329 84.9512Z" fill="white"/>
<path d="M181.094 86.6358C180.897 87.7459 179.837 88.4904 178.725 88.3076C177.612 88.1116 176.866 87.0537 177.049 85.9435C177.245 84.8334 178.306 84.0889 179.418 84.2717C180.544 84.4677 181.29 85.5256 181.094 86.6358Z" fill="white"/>
<path d="M287.541 98.9913L273.018 96.4854L272.732 98.1327L287.255 100.639L287.541 98.9913Z" fill="white"/>
<path d="M286.674 104.034L272.15 101.528L271.876 103.111L286.399 105.617L286.674 104.034Z" fill="white"/>
<path d="M285.826 108.866L271.303 106.358L270.984 108.199L285.507 110.706L285.826 108.866Z" fill="white"/>
<path d="M305.493 324.057L145.164 296.38C137.415 295.048 132.232 287.695 133.567 279.963L161.303 119.98C162.638 112.248 170.007 107.076 177.756 108.408L338.085 136.084C345.834 137.417 351.017 144.77 349.682 152.502L321.946 312.485C320.598 320.217 313.242 325.402 305.493 324.057Z" stroke="white" stroke-width="2" stroke-miterlimit="10" stroke-dasharray="3.09 3.09"/>
<path d="M200.871 368.803L40.5419 341.14C32.7931 339.808 27.6098 332.455 28.9449 324.723L47.1127 219.922C48.4478 212.19 55.817 207.018 63.5658 208.35L223.895 236.026C231.644 237.358 236.827 244.712 235.492 252.444L217.324 357.244C215.976 364.963 208.62 370.148 200.871 368.803Z" stroke="white" stroke-width="2" stroke-miterlimit="10" stroke-dasharray="3.09 3.09"/>
<g filter="url(#filter0_d_21_561)">
<path d="M155.792 293.311L19.3506 269.749C10.0966 268.156 3.87922 259.366 5.48919 250.132L24.1151 142.693C25.712 133.459 34.521 127.255 43.775 128.862L180.217 152.41C189.471 154.004 195.688 162.794 194.078 172.028L175.452 279.467C173.855 288.714 165.059 294.905 155.792 293.311Z" fill="url(#paint2_linear_21_561)"/>
<path d="M19.2979 170.5L5.48879 250.132C3.89191 259.366 10.0962 268.156 19.3502 269.75L155.792 293.298C165.046 294.892 173.855 288.701 175.452 279.467L189.261 199.822L19.2979 170.5Z" fill="white"/>
<path d="M87.7681 176.403C85.3728 190.248 72.1658 199.534 58.2913 197.144C44.4167 194.754 35.1103 181.575 37.5057 167.731C39.901 153.886 53.1079 144.6 66.9825 146.99C80.857 149.38 90.1634 162.546 87.7681 176.403Z" fill="white"/>
<path d="M46.3936 185.546L72.585 190.065C74.0772 180.4 70.9488 171.675 65.3074 168.893C68.4881 168.384 71.1321 165.928 71.708 162.585C72.441 158.379 69.6137 154.383 65.399 153.664C61.1843 152.933 57.179 155.754 56.4591 159.96C55.8832 163.303 57.5455 166.503 60.3728 168.044C54.1293 168.763 48.2391 175.933 46.3936 185.546Z" fill="url(#paint3_linear_21_561)"/>
<path d="M34.8911 201.417L31.6953 219.847L160.986 242.169L164.181 223.739L34.8911 201.417Z" fill="#C4C4D6"/>
<path d="M29.5005 232.548L26.3047 250.979L155.595 273.301L158.791 254.871L29.5005 232.548Z" fill="#C4C4D6"/>
</g>
<g filter="url(#filter1_d_21_561)">
<path d="M355.646 247.504C377.203 231.802 381.922 201.635 366.186 180.125C350.45 158.615 320.218 153.906 298.661 169.608C277.104 185.31 272.385 215.477 288.121 236.987C303.857 258.497 334.089 263.206 355.646 247.504Z" fill="white"/>
</g>
<path d="M315.676 231.86C315.441 235.582 318.006 238.965 321.776 239.618C325.545 240.271 329.106 237.946 330.127 234.354C327.116 234.067 324.498 233.662 322.849 233.388C321.2 233.101 318.595 232.591 315.676 231.86Z" fill="#F1F1F1"/>
<path d="M345.153 215.416C344.223 208.899 344.289 202.251 345.415 195.746C346.907 187.165 341.134 179.015 332.535 177.526C323.935 176.037 315.754 181.797 314.275 190.365C313.137 196.935 310.99 203.178 307.914 208.99C312.364 211.106 318.542 213.143 326.134 214.45C333.739 215.769 340.231 215.925 345.153 215.416Z" fill="url(#paint4_linear_21_561)"/>
<path d="M347.601 226.035C346.92 223.919 346.357 221.764 345.899 219.596C339.891 220.249 332.561 219.87 325.415 218.629C318.268 217.388 311.239 215.312 305.794 212.673C304.629 214.554 303.385 216.396 302.024 218.159C301.527 218.799 301.226 219.204 301.226 219.256C300.663 222.521 310.676 226.962 323.582 229.195C336.501 231.429 347.431 230.593 347.993 227.328C347.993 227.288 347.849 226.805 347.601 226.035Z" fill="url(#paint5_linear_21_561)"/>
<g filter="url(#filter2_d_21_561)">
<path d="M323.347 425.5L196.186 403.545C187.56 402.056 181.775 393.867 183.267 385.26L200.623 285.122C202.115 276.515 210.322 270.742 218.948 272.231L346.109 294.186C354.735 295.675 360.52 303.864 359.028 312.472L341.672 412.609C340.18 421.217 331.973 426.989 323.347 425.5Z" fill="white"/>
<path d="M196.12 311.035L183.253 385.26C181.761 393.867 187.546 402.056 196.172 403.545L323.333 425.5C331.959 426.989 340.166 421.216 341.658 412.609L354.525 338.384L196.12 311.035Z" fill="white"/>
<path d="M274.258 394.967C299.783 393.252 319.081 371.214 317.361 345.745C315.642 320.276 293.557 301.02 268.032 302.735C242.508 304.451 223.21 326.488 224.929 351.957C226.648 377.427 248.734 396.683 274.258 394.967Z" stroke="url(#paint6_linear_21_561)" stroke-width="2" stroke-miterlimit="10"/>
<path d="M261.697 403.323C231.552 398.125 211.343 369.522 216.565 339.442C221.775 309.363 250.44 289.197 280.584 294.409" stroke="url(#paint7_linear_21_561)" stroke-width="2.3913" stroke-miterlimit="10"/>
<path d="M280.584 294.408C310.728 299.606 330.938 328.21 325.715 358.289C320.506 388.368 291.841 408.534 261.696 403.323" stroke="#C4C4D6" stroke-width="4" stroke-miterlimit="10"/>
<path d="M296.343 348.755L290.61 346.26C290.466 345.15 290.218 344.066 289.877 342.995L293.817 338.436C294.275 337.901 294.315 337.13 293.922 336.569L290.401 331.579C290.008 331.018 289.275 330.796 288.608 331.057L282.979 333.225C282.076 332.546 281.134 331.945 280.139 331.436L279.733 325.219C279.668 324.527 279.144 323.952 278.464 323.834L272.469 322.803C271.775 322.685 271.094 323.064 270.806 323.691L268.333 329.411C267.22 329.555 266.134 329.803 265.06 330.143L260.492 326.211C259.956 325.754 259.183 325.715 258.62 326.107L253.62 329.62C253.058 330.012 252.835 330.744 253.097 331.41L255.27 337.026C254.589 337.927 253.987 338.867 253.476 339.86L247.429 340.33C246.749 340.369 246.16 340.879 246.042 341.571L245.008 347.553C244.89 348.245 245.269 348.924 245.898 349.186L251.434 351.654C251.578 352.764 251.827 353.848 252.167 354.919L248.228 359.478C247.77 360.013 247.73 360.784 248.123 361.345L251.644 366.334C252.037 366.896 252.77 367.118 253.437 366.857L259.065 364.689C259.969 365.368 260.911 365.969 261.906 366.478L262.338 372.499C262.403 373.191 262.927 373.766 263.607 373.884L269.602 374.915C270.296 375.033 270.977 374.654 271.265 374.027L273.699 368.503C274.812 368.359 275.898 368.111 276.971 367.771L281.54 371.702C282.076 372.16 282.848 372.199 283.411 371.807L288.411 368.294C288.974 367.902 289.197 367.17 288.935 366.504L286.762 360.888C287.443 359.987 288.045 359.047 288.555 358.054L294.799 357.623C295.48 357.584 296.069 357.074 296.186 356.382L297.22 350.4C297.351 349.708 296.972 349.016 296.343 348.755ZM269.733 356.434C265.597 355.716 262.822 351.785 263.529 347.657C264.249 343.53 268.189 340.761 272.325 341.467C276.461 342.185 279.236 346.116 278.529 350.243C277.809 354.371 273.869 357.14 269.733 356.434Z" fill="url(#paint8_linear_21_561)"/>
</g>
</g>
<defs>
<filter id="filter0_d_21_561" x="5.23535" y="128.608" width="219.097" height="199.953" filterUnits="userSpaceOnUse" color-interpolation-filters="sRGB">
<feFlood flood-opacity="0" result="BackgroundImageFix"/>
<feColorMatrix in="SourceAlpha" type="matrix" values="0 0 0 0 0 0 0 0 0 0 0 0 0 0 0 0 0 0 127 0" result="hardAlpha"/>
<feOffset dx="15" dy="20"/>
<feGaussianBlur stdDeviation="7.5"/>
<feComposite in2="hardAlpha" operator="out"/>
<feColorMatrix type="matrix" values="0 0 0 0 0 0 0 0 0 0 0 0 0 0 0 0 0 0 0.15 0"/>
<feBlend mode="normal" in2="BackgroundImageFix" result="effect1_dropShadow_21_561"/>
<feBlend mode="normal" in="SourceGraphic" in2="effect1_dropShadow_21_561" result="shape"/>
</filter>
<filter id="filter1_d_21_561" x="278.825" y="160.332" width="126.657" height="131.449" filterUnits="userSpaceOnUse" color-interpolation-filters="sRGB">
<feFlood flood-opacity="0" result="BackgroundImageFix"/>
<feColorMatrix in="SourceAlpha" type="matrix" values="0 0 0 0 0 0 0 0 0 0 0 0 0 0 0 0 0 0 127 0" result="hardAlpha"/>
<feOffset dx="15" dy="20"/>
<feGaussianBlur stdDeviation="7.5"/>
<feComposite in2="hardAlpha" operator="out"/>
<feColorMatrix type="matrix" values="0 0 0 0 0 0 0 0 0 0 0 0 0 0 0 0 0 0 0.15 0"/>
<feBlend mode="normal" in2="BackgroundImageFix" result="effect1_dropShadow_21_561"/>
<feBlend mode="normal" in="SourceGraphic" in2="effect1_dropShadow_21_561" result="shape"/>
</filter>
<filter id="filter2_d_21_561" x="178.019" y="271.997" width="216.244" height="193.737" filterUnits="userSpaceOnUse" color-interpolation-filters="sRGB">
<feFlood flood-opacity="0" result="BackgroundImageFix"/>
<feColorMatrix in="SourceAlpha" type="matrix" values="0 0 0 0 0 0 0 0 0 0 0 0 0 0 0 0 0 0 127 0" result="hardAlpha"/>
<feOffset dx="15" dy="20"/>
<feGaussianBlur stdDeviation="10"/>
<feComposite in2="hardAlpha" operator="out"/>
<feColorMatrix type="matrix" values="0 0 0 0 0 0 0 0 0 0 0 0 0 0 0 0 0 0 0.15 0"/>
<feBlend mode="normal" in2="BackgroundImageFix" result="effect1_dropShadow_21_561"/>
<feBlend mode="normal" in="SourceGraphic" in2="effect1_dropShadow_21_561" result="shape"/>
</filter>
<linearGradient id="paint0_linear_21_561" x1="130.691" y1="407.781" x2="295.92" y2="-6.7544" gradientUnits="userSpaceOnUse">
<stop offset="0.3417" stop-color="#5BB8E0"/>
<stop offset="1" stop-color="#00FFFF"/>
</linearGradient>
<linearGradient id="paint1_linear_21_561" x1="105.257" y1="230.961" x2="285.23" y2="262.168" gradientUnits="userSpaceOnUse">
<stop stop-color="#00FFFF"/>
<stop offset="0.9777" stop-color="#5BB8E0"/>
</linearGradient>
<linearGradient id="paint2_linear_21_561" x1="75.3829" y1="244.605" x2="170.077" y2="113.98" gradientUnits="userSpaceOnUse">
<stop stop-color="#00FFFF"/>
<stop offset="0.9777" stop-color="#D6DD21"/>
</linearGradient>
<linearGradient id="paint3_linear_21_561" x1="43.4109" y1="203.578" x2="102.947" y2="120.775" gradientUnits="userSpaceOnUse">
<stop stop-color="#00FFFF"/>
<stop offset="0.9777" stop-color="#D6DD21"/>
</linearGradient>
<linearGradient id="paint4_linear_21_561" x1="326.782" y1="177.292" x2="326.782" y2="215.685" gradientUnits="userSpaceOnUse">
<stop stop-color="#5FF19D"/>
<stop offset="1" stop-color="#73E656"/>
</linearGradient>
<linearGradient id="paint5_linear_21_561" x1="324.598" y1="212.673" x2="324.598" y2="230.447" gradientUnits="userSpaceOnUse">
<stop stop-color="#68F095"/>
<stop offset="1" stop-color="#4FDF7C"/>
</linearGradient>
<linearGradient id="paint6_linear_21_561" x1="223.766" y1="343.909" x2="318.511" y2="353.827" gradientUnits="userSpaceOnUse">
<stop stop-color="#00FFFF"/>
<stop offset="0.9777" stop-color="#D6DD21"/>
</linearGradient>
<linearGradient id="paint7_linear_21_561" x1="215.024" y1="339.178" x2="271.138" y2="348.909" gradientUnits="userSpaceOnUse">
<stop stop-color="#00FFFF"/>
<stop offset="0.9777" stop-color="#D6DD21"/>
</linearGradient>
<linearGradient id="paint8_linear_21_561" x1="245.553" y1="344.449" x2="296.726" y2="353.322" gradientUnits="userSpaceOnUse">
<stop offset="0.0223" stop-color="#5BB8E0"/>
<stop offset="1" stop-color="#00FFFF"/>
</linearGradient>
<clipPath id="clip0_21_561">
<rect width="393.735" height="410.987" fill="white" transform="translate(0 55.7979)"/>
</clipPath>
</defs>
</svg>
