<svg width="143" height="107" viewBox="0 0 143 107" fill="none" xmlns="http://www.w3.org/2000/svg">
<path fill-rule="evenodd" clip-rule="evenodd" d="M-15.1506 0L-13.4519 0.947717L10.9247 14.5473L35.3013 0.947717L37 0L38.6987 0.947717L63.0753 14.5473L87.4519 0.947717L89.1506 0L90.8494 0.947717L115.226 14.5473L139.603 0.947717L143 6.99183L116.925 21.5392L115.226 22.4869L113.527 21.5392L89.1506 7.93955L64.774 21.5392L63.0753 22.4869L61.3766 21.5392L37 7.93955L12.6234 21.5392L10.9247 22.4869L9.22595 21.5392L-15.1506 7.93955L-39.5272 21.5392L-41.226 22.4869L-42.9247 21.5392L-69 6.99183L-65.6025 0.947717L-41.226 14.5473L-16.8494 0.947717L-15.1506 0ZM-15.1506 42.2566L-13.4519 43.2043L10.9247 56.8039L35.3013 43.2043L37 42.2566L38.6987 43.2043L63.0753 56.8039L87.4519 43.2043L89.1506 42.2566L90.8494 43.2043L115.226 56.8039L139.603 43.2043L143 49.2484L116.925 63.7957L115.226 64.7434L113.527 63.7957L89.1506 50.1961L64.774 63.7957L63.0753 64.7434L61.3766 63.7957L37 50.1961L12.6234 63.7957L10.9247 64.7434L9.22595 63.7957L-15.1506 50.1961L-39.5272 63.7957L-41.226 64.7434L-42.9247 63.7957L-69 49.2484L-65.6025 43.2043L-41.226 56.8039L-16.8494 43.2043L-15.1506 42.2566ZM-13.4519 85.4608L-15.1506 84.5131L-16.8494 85.4608L-41.226 99.0604L-65.6025 85.4608L-69 91.5049L-42.9247 106.052L-41.226 107L-39.5272 106.052L-15.1506 92.4527L9.22595 106.052L10.9247 107L12.6234 106.052L37 92.4527L61.3766 106.052L63.0753 107L64.774 106.052L89.1506 92.4527L113.527 106.052L115.226 107L116.925 106.052L143 91.5049L139.603 85.4608L115.226 99.0604L90.8494 85.4608L89.1506 84.5131L87.4519 85.4608L63.0753 99.0604L38.6987 85.4608L37 84.5131L35.3013 85.4608L10.9247 99.0604L-13.4519 85.4608Z" fill="#35C5E4"/>
</svg>
